<svg width="56" height="56" viewBox="0 0 56 56" fill="none" xmlns="http://www.w3.org/2000/svg">
<g filter="url(#filter0_d_76_138)">
<path d="M27.5991 47.1981C40.6324 47.1981 51.1981 36.6324 51.1981 23.5991C51.1981 10.5657 40.6324 0 27.5991 0C14.5657 0 4 10.5657 4 23.5991C4 36.6324 14.5657 47.1981 27.5991 47.1981Z" fill="#004CE8"/>
<path d="M51.1981 23.5991C51.1981 36.6267 40.6267 47.1981 27.599 47.1981C25.2271 47.1981 22.9274 46.8489 20.7601 46.1867C30.4526 43.2609 37.5203 34.2547 37.5203 23.5991C37.5203 12.9434 30.4526 3.93719 20.7601 1.01139C22.9274 0.34917 25.2271 0 27.599 0C40.6267 0 51.1981 10.5594 51.1981 23.5991Z" fill="#0065F4"/>
<path d="M28.466 11.6912C32.0901 11.6912 35.7263 11.6912 39.3504 11.6912C39.7116 11.6912 39.7959 11.8356 39.7718 12.1728C39.5671 14.34 39.3865 16.4953 39.1939 18.6625C39.0133 20.6612 38.8086 22.6599 38.628 24.6586C38.4835 26.3081 38.3511 27.9697 38.2186 29.6313C38.0862 31.1724 37.9417 32.7136 37.8093 34.2547C37.7731 34.6039 37.6286 34.7966 37.2554 34.8929C34.462 35.6514 31.6687 36.4461 28.8753 37.2046C28.6466 37.2648 28.3817 37.2648 28.1529 37.2046C25.3234 36.434 22.506 35.6273 19.6765 34.8688C19.2671 34.7604 19.1467 34.5558 19.1106 34.1584C18.9541 32.1356 18.7855 30.1129 18.5808 28.1021C18.5327 27.6566 18.6651 27.5603 19.0625 27.5724C20.2544 27.5844 21.4344 27.5964 22.6264 27.5724C23.0358 27.5603 23.1802 27.7048 23.2164 28.0901C23.2766 28.9811 23.3729 29.86 23.4211 30.751C23.4331 31.0761 23.5415 31.2085 23.8545 31.2928C25.2753 31.654 26.684 32.0514 28.0927 32.4246C28.2492 32.4607 28.4178 32.4848 28.5623 32.4487C30.0312 32.0634 31.4881 31.654 32.945 31.2687C33.2339 31.1965 33.3664 31.052 33.3904 30.7751C33.4627 29.9563 33.559 29.1376 33.6313 28.3189C33.7035 27.5603 33.7517 26.8138 33.8359 26.0553C33.8841 25.6218 33.7637 25.4533 33.2821 25.4533C28.5262 25.4653 23.7823 25.4412 19.0263 25.4533C18.5327 25.4533 18.2919 25.381 18.2678 24.8151C18.2076 23.6111 18.0631 22.4191 17.9427 21.2271C17.9186 20.9502 18.0149 20.8418 18.2919 20.8418C18.8698 20.8539 19.4477 20.8418 20.0257 20.8418C24.5649 20.8418 29.1041 20.8298 33.6313 20.8298C34.2935 20.8298 34.2935 20.8057 34.3416 20.1314C34.4139 19.1802 34.5102 18.2291 34.6065 17.2779C34.6186 17.0852 34.6667 16.8685 34.6186 16.6879C34.5824 16.5555 34.4259 16.4351 34.2935 16.3749C34.1851 16.3267 34.0286 16.3628 33.9082 16.3628C28.6586 16.3628 23.409 16.3508 18.1715 16.3508C17.7019 16.3508 17.4972 16.2424 17.4611 15.7488C17.3768 14.5447 17.2564 13.3527 17.124 12.1607C17.0758 11.7152 17.3407 11.7273 17.6417 11.7273C21.025 11.7273 24.4084 11.7273 27.7917 11.7273C28.0084 11.7273 28.2251 11.7273 28.4298 11.7273C28.466 11.7032 28.466 11.7032 28.466 11.6912Z" fill="white"/>
</g>
<defs>
<filter id="filter0_d_76_138" x="0" y="0" width="55.1981" height="55.1981" filterUnits="userSpaceOnUse" color-interpolation-filters="sRGB">
<feFlood flood-opacity="0" result="BackgroundImageFix"/>
<feColorMatrix in="SourceAlpha" type="matrix" values="0 0 0 0 0 0 0 0 0 0 0 0 0 0 0 0 0 0 127 0" result="hardAlpha"/>
<feOffset dy="4"/>
<feGaussianBlur stdDeviation="2"/>
<feComposite in2="hardAlpha" operator="out"/>
<feColorMatrix type="matrix" values="0 0 0 0 0 0 0 0 0 0 0 0 0 0 0 0 0 0 0.25 0"/>
<feBlend mode="normal" in2="BackgroundImageFix" result="effect1_dropShadow_76_138"/>
<feBlend mode="normal" in="SourceGraphic" in2="effect1_dropShadow_76_138" result="shape"/>
</filter>
</defs>
</svg>
