<svg width="56" height="56" viewBox="0 0 56 56" fill="none" xmlns="http://www.w3.org/2000/svg">
<g filter="url(#filter0_d_76_88)">
<path d="M27.9976 47.1981C41.031 47.1981 51.5967 36.6324 51.5967 23.5991C51.5967 10.5657 41.031 0 27.9976 0C14.9642 0 4.39856 10.5657 4.39856 23.5991C4.39856 36.6324 14.9642 47.1981 27.9976 47.1981Z" fill="#EFD659"/>
<path d="M37.9068 21.7087C38.9182 21.4679 40.05 21.504 41.1336 22.0458C43.638 23.298 44.0955 26.9824 42.0005 28.9209C40.0259 30.739 36.3897 30.763 34.391 28.957C33.0064 27.7048 32.5729 25.9108 33.3074 24.0205C33.6084 23.2378 34.0419 22.4913 34.5235 21.8171C35.5951 20.3 36.7509 18.8311 37.8587 17.3381C38.0393 17.0973 38.2199 17.0009 38.5209 17.0009C39.4841 17.025 40.4594 17.013 41.5912 17.013C40.2908 18.6625 39.0747 20.2278 37.9068 21.7087ZM38.1356 23.8037C36.9677 23.8037 36.1008 24.6345 36.0887 25.7422C36.0767 26.862 36.9677 27.7168 38.1476 27.7168C39.3276 27.7168 40.1945 26.874 40.1945 25.7302C40.1824 24.6225 39.3035 23.7917 38.1356 23.8037Z" fill="black"/>
<path d="M12.6703 29.9563C12.6703 25.658 12.6703 21.3836 12.6703 17.0852C15.5118 17.0852 18.3413 17.0852 21.2069 17.0852C21.2069 17.7956 21.2069 18.4578 21.2069 19.1321C21.2069 19.4933 20.942 19.4211 20.7373 19.4211C19.1359 19.4211 17.5466 19.4211 15.9452 19.4211C15.3071 19.4211 15.3071 19.4211 15.3071 20.0592C15.3071 20.6371 15.3312 21.2151 15.2951 21.793C15.283 22.1542 15.4034 22.2505 15.7526 22.2505C17.1613 22.2385 18.57 22.2505 19.9787 22.2385C20.364 22.2385 20.5085 22.3348 20.4844 22.7322C20.4604 23.3101 20.4724 23.888 20.4724 24.5141C18.7506 24.5141 17.065 24.5141 15.3312 24.5141C15.3312 25.5616 15.3312 26.5489 15.3312 27.6085C17.3419 27.6085 19.3647 27.6085 21.4236 27.6085C21.4236 28.4272 21.4236 29.1617 21.4236 29.9443C18.5219 29.9564 15.6201 29.9563 12.6703 29.9563Z" fill="black"/>
<path d="M22.3627 27.4881C23.1815 27.0185 23.8678 26.6092 24.5902 26.1877C24.843 26.4887 25.0718 26.7898 25.3367 27.0426C26.1554 27.8132 27.1187 27.9938 28.1662 27.6205C29.1896 27.2593 29.3582 26.1155 28.4792 25.4894C27.9856 25.1402 27.3956 24.9235 26.8538 24.6466C26.1916 24.3094 25.4812 24.0205 24.8671 23.6111C23.4945 22.684 22.9286 21.0586 23.3741 19.4813C23.7835 18.0244 25.0598 17.0371 26.7334 16.9287C28.4431 16.8083 29.8879 17.302 30.8271 18.8431C30.8632 18.8913 30.8873 18.9515 30.9475 19.0719C30.2732 19.5174 29.599 19.9508 28.8886 20.4084C28.7561 20.2278 28.6478 20.0713 28.5274 19.9147C28.0939 19.3609 27.516 19.1923 26.8538 19.3007C26.4083 19.3729 26.0712 19.6378 25.9508 20.0953C25.8424 20.5408 25.9026 20.9984 26.312 21.2873C26.7213 21.5763 27.1668 21.8051 27.6123 22.0097C28.6839 22.5034 29.7916 22.9007 30.6465 23.7436C32.597 25.658 31.9107 28.9691 29.3341 29.836C27.2993 30.5223 25.3367 30.3176 23.627 28.9329C23.1574 28.5476 22.8082 28.0058 22.3627 27.4881Z" fill="black"/>
</g>
<defs>
<filter id="filter0_d_76_88" x="0.39856" y="0" width="55.1981" height="55.1981" filterUnits="userSpaceOnUse" color-interpolation-filters="sRGB">
<feFlood flood-opacity="0" result="BackgroundImageFix"/>
<feColorMatrix in="SourceAlpha" type="matrix" values="0 0 0 0 0 0 0 0 0 0 0 0 0 0 0 0 0 0 127 0" result="hardAlpha"/>
<feOffset dy="4"/>
<feGaussianBlur stdDeviation="2"/>
<feComposite in2="hardAlpha" operator="out"/>
<feColorMatrix type="matrix" values="0 0 0 0 0 0 0 0 0 0 0 0 0 0 0 0 0 0 0.25 0"/>
<feBlend mode="normal" in2="BackgroundImageFix" result="effect1_dropShadow_76_88"/>
<feBlend mode="normal" in="SourceGraphic" in2="effect1_dropShadow_76_88" result="shape"/>
</filter>
</defs>
</svg>
