<svg width="56" height="56" viewBox="0 0 56 56" fill="none" xmlns="http://www.w3.org/2000/svg">
<g filter="url(#filter0_d_76_119)">
<path d="M28.4009 47.1981C41.4343 47.1981 52 36.6324 52 23.5991C52 10.5657 41.4343 0 28.4009 0C15.3675 0 4.80188 10.5657 4.80188 23.5991C4.80188 36.6324 15.3675 47.1981 28.4009 47.1981Z" fill="white"/>
<path d="M30.9415 10.5112C32.1696 9.65635 33.4699 8.97005 35.0111 8.98209C36.2392 8.99413 37.1663 9.57207 37.7804 10.6437C38.274 11.4985 38.4426 12.4617 38.4907 13.425C38.563 14.9059 38.3463 16.3628 37.985 17.7956C37.9248 18.0244 37.973 18.1087 38.1897 18.1809C39.3095 18.518 40.4052 18.9154 41.4286 19.4692C42.6928 20.1555 43.8607 20.9622 44.4868 22.3228C44.8601 23.1415 44.8601 23.9843 44.5229 24.8031C44.0293 26.0192 43.042 26.7777 41.9704 27.452C41.6814 27.6326 41.3804 27.8132 41.0674 27.9336C40.9711 27.8613 40.9711 27.753 40.9711 27.6566C40.9831 27.2714 40.8747 26.9101 40.8747 26.5249C40.9108 26.3563 41.0674 26.284 41.1998 26.2118C41.7416 25.8867 42.2473 25.5014 42.6687 25.0198C43.4995 24.1047 43.4754 23.0934 42.6326 22.1783C42.0426 21.5281 41.3082 21.0826 40.5496 20.6853C39.7429 20.2639 38.876 19.9508 38.0091 19.6739C37.6118 19.5535 37.5757 19.5776 37.4673 19.9629C37.383 20.2398 37.3108 20.5288 37.1543 20.7696C37.1422 20.7696 37.1302 20.7816 37.1302 20.7816C36.6847 20.5528 36.2272 20.3361 35.9021 19.9388C35.878 19.7702 35.9623 19.6137 36.0104 19.4572C36.0706 19.2525 36.0225 19.1441 35.8057 19.108C35.0592 18.9635 34.3007 18.819 33.5422 18.7107C33.4218 18.6986 33.3375 18.7107 33.2773 18.807C33.1569 18.8792 33.0365 18.8311 32.9161 18.795C31.9288 18.506 30.9294 18.3495 29.906 18.3013C29.7013 18.2893 29.4966 18.217 29.2919 18.2411C28.7501 18.3013 28.3528 18.1327 27.9434 17.7354C27.0765 16.8926 25.6196 17.3622 25.2705 18.5301C25.2343 18.6625 25.2103 18.795 25.1741 18.9274C24.6203 19.7582 24.1146 20.601 23.6209 21.4679C23.5246 21.6365 23.4403 21.8171 23.344 21.9856C23.2838 22.094 23.2236 22.2144 23.055 22.1542C22.8022 21.7448 22.8142 21.2632 22.7299 20.8177C22.6818 20.5769 22.6216 20.3361 22.6697 20.0833C22.8504 19.5896 23.2116 19.1803 23.4524 18.7107C23.1875 18.6625 22.9346 18.8552 22.6818 18.7107C22.5253 18.518 22.6457 18.3133 22.6457 18.1087C22.6457 17.8077 22.6697 17.5187 22.7781 17.2297C23.2838 17.0852 23.8256 17.1093 24.3434 17.025C24.536 16.9889 24.6684 16.9167 24.7768 16.7722C25.4751 15.7849 26.2337 14.8337 27.0524 13.9427C27.3053 13.6658 27.3053 13.6417 27.0404 13.3648C26.7635 13.0758 26.4625 12.835 26.1614 12.5821C26.041 12.4738 25.8966 12.3895 25.8364 12.2089C25.9327 12.0163 26.1253 11.9561 26.2939 11.8838C26.619 11.7393 26.9561 11.5948 27.3173 11.5587C27.6304 11.7634 27.9073 12.0042 28.1601 12.2811C28.3287 12.4617 28.4732 12.4738 28.6538 12.2811C28.9187 11.9922 29.2317 11.7514 29.5448 11.5106C30.0745 11.643 30.5802 11.7995 30.9294 12.2691C30.809 12.5099 30.5682 12.6424 30.3756 12.8109C30.1468 13.0156 29.9301 13.2444 29.6893 13.437C29.5448 13.5574 29.5448 13.6537 29.6652 13.7982C30.0505 14.2678 30.4598 14.7012 30.8331 15.1708C31.2545 15.7006 31.6759 16.2304 32.0732 16.7722C32.1816 16.9287 32.302 17.013 32.5067 17.025C32.7957 17.0371 33.0726 17.1334 33.3736 17.0732C33.795 17.314 34.2887 17.3862 34.7342 17.5548C34.8666 17.603 34.9027 17.4826 34.987 17.4224C35.3603 17.3501 35.7094 17.4705 36.0586 17.5548C36.48 17.6511 36.5161 17.6391 36.6245 17.2297C36.8773 16.2304 37.0098 15.2069 37.0579 14.1835C37.0941 13.3889 37.0098 12.6062 36.7329 11.8477C36.3355 10.752 35.5649 10.3186 34.4091 10.5233C33.7348 10.6437 33.1208 10.9326 32.5308 11.2457C32.4345 11.2938 32.3381 11.3781 32.2298 11.3902C31.8926 11.3179 31.6759 11.0289 31.399 10.8604C31.2063 10.7641 31.0017 10.7159 30.9415 10.5112Z" fill="#62D9FB"/>
<path d="M38.4426 32.4366C38.575 32.9544 38.5268 33.4721 38.4907 33.9898C38.4305 34.7845 38.274 35.5671 37.9369 36.3016C37.3108 37.6621 35.8659 38.4327 34.385 38.204C32.8559 37.9631 31.5916 37.1926 30.3755 36.3016C29.7374 35.832 29.1234 35.3263 28.5815 34.7604C28.413 34.5919 28.3166 34.6761 28.1962 34.7965C27.6544 35.3624 27.0524 35.844 26.4263 36.3136C25.3427 37.1203 24.1868 37.8187 22.8383 38.1317C20.8757 38.5892 19.2262 37.626 18.6362 35.6875C18.3232 34.6641 18.275 33.6286 18.3111 32.5691C18.3111 32.4728 18.3473 32.3885 18.3713 32.2922C18.4195 32.256 18.4677 32.256 18.5158 32.2801C18.9131 32.533 19.3346 32.7376 19.756 32.9423C19.7921 32.9664 19.8162 33.0025 19.8162 33.0387C19.6596 33.448 19.8162 33.8694 19.8403 34.2668C19.8764 34.8327 20.0329 35.3624 20.3339 35.8561C20.6951 36.4822 21.4416 36.8314 22.152 36.735C23.3079 36.5665 24.2831 36.0126 25.2223 35.3624C25.8965 34.8808 26.5226 34.327 27.1487 33.7852C27.2932 33.6527 27.2812 33.5564 27.1608 33.4239C26.9681 33.2072 26.7394 33.0266 26.643 32.7376C26.6551 32.7015 26.6551 32.6654 26.6792 32.6534C27.1006 32.4728 27.4859 32.2079 27.9434 32.1115C28.0397 32.1236 28.124 32.1717 28.1842 32.244C28.3648 32.4728 28.5213 32.4126 28.6779 32.2079C28.9909 31.8226 29.3401 31.4734 29.617 31.052C29.9903 30.7028 30.3996 30.4139 30.7608 30.0526C31.7361 29.0894 32.5548 28.0178 33.1809 26.7897C33.3013 26.561 33.4458 26.4165 33.6987 26.3322C34.4693 26.1034 34.8545 25.5496 34.9388 24.779C34.987 24.3215 34.7823 23.9362 34.4933 23.587C34.385 23.4545 34.2285 23.3582 34.1321 23.2017C33.7228 22.2987 33.2171 21.4438 32.7354 20.5769C32.6752 20.4685 32.5669 20.3602 32.6632 20.2157C32.7234 20.1796 32.7836 20.1796 32.8438 20.1916C33.506 20.3963 34.1562 20.613 34.7341 20.9983C34.8425 21.1428 34.9147 21.3234 34.987 21.4799C35.0713 21.6485 35.1435 21.793 35.288 21.5161C35.3121 21.4679 35.3602 21.4438 35.4084 21.4318C35.8659 21.6003 36.2633 21.8411 36.5643 22.2385C36.5643 22.6238 36.3235 22.9127 36.191 23.2499C36.0947 23.4907 36.1067 23.6833 36.2151 23.9241C36.6967 25.0078 37.1302 26.1034 37.4914 27.2352C37.6118 27.6205 37.6238 27.6446 38.0091 27.5121C38.4064 27.3797 38.8038 27.2713 39.1891 27.1028C39.3095 27.0546 39.4419 26.9824 39.5744 27.0787C39.779 27.5723 39.6707 28.066 39.5262 28.5476C39.454 28.6801 39.3215 28.7162 39.2011 28.7643C38.9362 28.8607 38.6713 28.9449 38.4064 29.0292C38.0693 29.1376 38.0573 29.1617 38.1416 29.5229C38.2258 29.8841 38.3222 30.2453 38.3462 30.6185C38.0934 31.1242 37.6238 31.3771 37.1543 31.6179C37.1061 31.642 37.0579 31.6179 37.0098 31.5938C36.9134 31.5095 36.9134 31.3891 36.8894 31.2808C36.8171 30.7991 36.7208 30.3175 36.6124 29.8359C36.5643 29.6192 36.4559 29.547 36.2392 29.5951C35.4566 29.7396 34.686 29.9082 33.9034 30.0045C33.4699 30.0647 33.0365 30.1129 32.603 30.149C32.3502 30.1731 32.1816 30.2814 32.0371 30.4861C31.6879 30.9677 31.3508 31.4493 30.9414 31.8828C30.7849 32.0513 30.6404 32.244 30.4839 32.4126C30.4357 32.4968 30.3033 32.533 30.3394 32.6654C30.0745 32.8821 29.8698 33.1711 29.6411 33.4239C29.5448 33.5323 29.5688 33.6286 29.6652 33.725C30.7608 34.7123 31.8806 35.6634 33.2411 36.2895C33.7348 36.5183 34.2525 36.6869 34.7943 36.711C35.601 36.7471 36.191 36.4701 36.6124 35.6153C36.8773 35.0855 36.9977 34.5076 37.0098 33.9056C37.0218 33.6286 37.07 33.3517 37.094 33.0748C37.1302 32.9784 37.2024 32.9303 37.2867 32.8942C37.5997 32.7376 37.9248 32.6172 38.2258 32.4246C38.274 32.4126 38.3583 32.3764 38.4426 32.4366Z" fill="#62D9FB"/>
<path d="M16.0957 28.078C15.0362 27.6566 14.085 27.0546 13.2662 26.26C12.7003 25.7181 12.2789 25.08 12.0983 24.3094C11.8214 23.0572 12.2549 22.0218 13.0977 21.1187C14.0248 20.1314 15.1927 19.5053 16.4088 18.9635C17.1071 18.6505 17.8416 18.3976 18.576 18.1929C18.7928 18.1327 18.8409 18.0364 18.7928 17.8076C18.4556 16.435 18.2389 15.0384 18.2871 13.6176C18.3232 12.6664 18.4556 11.7393 18.877 10.8724C19.5995 9.41553 21.0082 8.71719 22.5975 9.03024C23.657 9.23493 24.6203 9.69246 25.5233 10.2824C25.5955 10.3306 25.6678 10.3667 25.6919 10.451C25.7039 10.4751 25.7159 10.4992 25.7039 10.5112C25.3066 10.8122 24.8972 11.1132 24.4156 11.2697C24.0183 11.1253 23.645 10.9085 23.2477 10.752C22.7661 10.5714 22.2724 10.4751 21.7547 10.4751C21.0804 10.4871 20.6229 10.8122 20.2858 11.3661C19.9727 11.8838 19.8643 12.4617 19.8041 13.0638C19.6476 14.4725 19.8884 15.833 20.1774 17.1936C20.2617 17.615 20.3219 17.627 20.7312 17.5428C20.8998 17.5066 21.0684 17.4224 21.2369 17.5668C21.261 18.0364 21.2851 18.4939 21.1406 18.9515C21.1286 18.9635 21.1165 18.9876 21.1045 18.9996C20.7192 19.2404 20.7192 19.2404 20.8637 19.6739C20.9841 20.0351 21.0925 20.4084 21.2731 20.7455C21.4175 21.0706 21.4175 21.4318 21.5018 21.7689C21.8028 23.1415 22.3326 24.4178 22.9948 25.6579C23.1152 25.8867 23.1514 26.0794 23.055 26.3322C22.9467 26.5971 22.8865 26.8861 22.9467 27.1871C22.9587 27.2593 22.9587 27.3315 22.9226 27.4038C22.7299 27.464 22.6938 27.2954 22.6336 27.1991C22.3567 26.7416 22.0918 26.26 21.8269 25.7904C21.7788 25.7061 21.7667 25.5616 21.6463 25.5616C21.55 25.5616 21.5379 25.6941 21.5018 25.7783C21.261 26.4044 21.0082 27.0305 20.8035 27.6807C20.7072 27.9817 20.7433 28.0419 21.0563 28.1142C21.7908 28.2827 22.5373 28.355 23.2718 28.4874C23.5126 28.5356 23.3801 28.3189 23.4644 28.2707C23.5607 28.2586 23.645 28.3068 23.7293 28.355C24.1507 28.5717 24.5842 28.7162 25.0658 28.5717C25.15 28.5476 25.2464 28.5476 25.3427 28.5837C25.5594 28.7041 25.7882 28.7403 26.029 28.7523C27.0765 28.7764 28.112 28.8486 29.1595 28.8245C29.2919 28.8245 29.4244 28.8125 29.5568 28.8486C29.8097 29.0172 29.5689 29.1256 29.4846 29.1978C29.0993 29.559 28.6779 29.86 28.2324 30.149C28.0999 30.2333 27.9795 30.3296 27.823 30.3537C27.522 30.3657 27.2089 30.3657 26.9079 30.3657C26.7394 30.3657 26.6671 30.4018 26.7875 30.5704C26.8477 30.6547 26.92 30.7269 26.92 30.8473C26.5347 31.1965 26.0892 31.4132 25.5594 31.4373C25.2343 31.1965 25.0296 30.8594 24.8009 30.5343C24.6323 30.2935 24.4397 30.1851 24.1387 30.161C23.043 30.0647 21.9594 29.8841 20.8757 29.6674C20.1533 29.5229 20.2858 29.547 20.1292 30.161C20.0209 30.5584 19.9968 30.9798 19.8764 31.3771C19.8403 31.4493 19.768 31.4493 19.7078 31.4132C19.2744 31.1845 18.877 30.9075 18.576 30.4982C18.5399 30.45 18.5279 30.3898 18.5158 30.3175C18.5399 30.0045 18.6121 29.7035 18.6844 29.4025C18.7205 29.2219 18.6724 29.1256 18.5038 29.0774C18.2028 28.9811 17.9018 28.9088 17.6369 28.7403C17.4081 28.2466 17.3118 27.7409 17.4442 27.1991C17.5887 27.1148 17.7212 27.175 17.8656 27.2232C18.2148 27.3315 18.5519 27.4519 18.9011 27.5724C19.0938 27.6326 19.1901 27.5844 19.2503 27.3917C19.6235 26.1636 20.1052 24.9837 20.6229 23.8158C20.6951 23.6472 20.6831 23.5027 20.6229 23.3342C20.4784 22.9489 20.2617 22.5877 20.1172 22.2024C20.0449 21.9254 19.9727 21.6485 19.8403 21.3957C19.7801 21.2753 19.7319 21.1549 19.6717 21.0345C19.5754 20.613 19.3707 20.2157 19.2744 19.7943C19.2262 19.5896 19.1058 19.5415 18.9011 19.6017C17.9861 19.8786 17.083 20.2037 16.2282 20.6371C15.4455 21.0345 14.7231 21.504 14.1091 22.1542C13.3144 23.0091 13.2783 24.0084 14.0248 24.8994C14.5305 25.5135 15.1686 25.9469 15.8549 26.3202C15.9874 26.3924 16.1439 26.4406 16.2041 26.6091C16.2041 27.0305 16.1559 27.4399 16.1559 27.8613C16.18 27.9576 16.1559 28.0178 16.0957 28.078Z" fill="#62D9FB"/>
<path d="M21.0925 18.9876C21.1286 18.506 21.1527 18.0364 21.1888 17.5548C21.0925 17.3501 21.1768 17.1455 21.2129 16.9408C21.5259 15.3876 22.0075 13.8946 22.9948 12.6183C23.4163 12.0765 23.8377 11.5347 24.4517 11.1975C24.8611 10.9447 25.2825 10.6918 25.6919 10.439C26.3059 10.2463 26.8959 10.0176 27.534 9.92125C28.6538 9.76473 29.7133 9.93329 30.7368 10.4149C30.797 10.451 30.8692 10.4631 30.9415 10.4872C31.3508 10.7641 31.7482 11.041 32.1575 11.3059C32.6151 11.5106 32.88 11.932 33.1689 12.3052C34.2044 13.6538 34.7462 15.207 34.9629 16.8806C34.987 17.0612 35.0833 17.2418 34.9629 17.4224C34.975 17.615 34.9148 17.6752 34.7101 17.603C34.3248 17.4705 33.9275 17.3501 33.5301 17.2418C33.4097 17.2057 33.3856 17.1455 33.3495 17.0612C33.2412 17.013 33.2532 16.9167 33.2412 16.8204C32.9883 15.3876 32.4706 14.0752 31.5435 12.9434C31.3388 12.6905 31.0498 12.534 30.9053 12.245C30.508 11.8838 30.0264 11.6671 29.5207 11.5226C29.4364 11.5708 29.3401 11.5828 29.2438 11.5587C28.7381 11.4143 28.2324 11.4985 27.7387 11.5828C27.6063 11.6069 27.4738 11.643 27.3414 11.5708C26.8116 11.6912 26.3059 11.8718 25.8364 12.1608C25.7521 12.3293 25.5715 12.3895 25.427 12.4858C24.8731 12.8471 24.4878 13.3648 24.1387 13.8946C23.5246 14.8217 23.1514 15.8331 22.9346 16.9167C22.9106 17.013 22.9467 17.1334 22.8142 17.1816C22.754 17.6752 22.6457 18.1568 22.7059 18.6625C22.754 19.108 22.7902 19.5535 22.7179 19.987C22.7661 20.7094 22.8504 21.4318 23.0912 22.1181C23.2477 22.371 23.2959 22.6599 23.3922 22.9248C23.6089 23.5509 23.8738 24.165 24.1989 24.7429C24.3313 24.9717 24.4878 25.08 24.7648 25.0921C25.5594 25.1162 26.2337 25.682 26.4263 26.4406C26.631 27.2473 26.2939 28.0901 25.6196 28.4995C25.5113 28.5597 25.4149 28.6319 25.2705 28.6078C24.6082 28.8487 24.0183 28.656 23.4524 28.3068C23.1032 28.1142 22.9467 27.7891 22.8985 27.4038C22.8263 26.9583 22.8383 26.5128 23.055 26.1035C23.1032 26.0071 23.055 25.9229 23.0069 25.8506C22.2122 24.4058 21.6102 22.8887 21.3092 21.2632C21.2731 21.0947 21.3212 20.902 21.2249 20.7455C21.0082 20.2519 21.0684 19.7221 21.0082 19.2044C20.9961 19.1321 21.0443 19.0599 21.0925 18.9876Z" fill="#764ABC"/>
<path d="M34.698 21.0706C34.0358 20.7214 33.3736 20.3963 32.6271 20.2518C32.5548 20.2759 32.4826 20.2518 32.4104 20.2277C31.2906 19.8786 30.1347 19.7461 28.9668 19.7582C28.7019 19.7582 28.5334 19.8304 28.3648 20.0592C27.8952 20.7334 27.221 20.9502 26.4504 20.7936C25.728 20.6492 25.2704 20.1796 25.0537 19.4692C24.9935 19.2886 24.9815 19.108 25.0658 18.9274C25.15 17.9401 25.7641 17.2779 26.7394 17.1936C27.3293 17.1454 27.8471 17.3862 28.2083 17.8558C28.3768 18.0725 28.5695 18.1207 28.8223 18.1207C30.2311 18.1327 31.6157 18.2893 32.9642 18.6866C33.0485 18.7107 33.1448 18.7227 33.2411 18.7347C33.494 18.7107 33.6987 18.8552 33.9154 18.9274C34.5535 19.1441 35.1556 19.421 35.7335 19.7702C35.8057 19.8184 35.8659 19.8665 35.9261 19.9267C36.3114 20.1916 36.7088 20.4565 37.094 20.7214C37.3349 20.7575 37.4914 20.9502 37.6599 21.0947C38.5389 21.9014 39.3938 22.7321 39.9958 23.7796C40.3931 24.478 40.7302 25.2004 40.9108 25.983C40.947 26.1275 40.9951 26.26 40.947 26.4044C41.0072 26.8981 41.0674 27.3917 41.0674 27.8854C40.9831 29.0052 40.7182 30.0527 39.9958 30.9436C39.6105 31.4132 39.1891 31.8346 38.6954 32.1838C38.5991 32.244 38.5268 32.3283 38.4426 32.4005C38.0091 32.6293 37.5636 32.846 37.1302 33.0748C36.9496 33.2554 36.7088 33.2915 36.48 33.3517C34.5776 33.8815 32.7234 33.6888 30.9174 32.9664C30.7006 32.8821 30.4478 32.8581 30.3153 32.6293C30.1468 32.4848 30.4117 32.5089 30.3996 32.4126C30.5682 32.256 30.7488 32.1116 30.9053 31.943C31.7481 31.2567 31.5073 31.341 32.4946 31.642C33.9515 32.0995 35.4204 32.1838 36.8773 31.5938C36.9255 31.5697 36.9736 31.5697 37.0338 31.5697C37.5275 31.3771 37.9248 31.064 38.274 30.6667C38.3944 30.3898 38.6232 30.1971 38.7917 29.9443C39.0687 29.5229 39.2372 29.0413 39.454 28.5958C39.5623 28.1021 39.6586 27.5964 39.5262 27.0907C39.454 27.0185 39.4419 26.9222 39.4299 26.8379C39.0807 25.0559 38.0814 23.6713 36.7569 22.5034C36.6726 22.4311 36.5884 22.3468 36.5402 22.2505C36.191 21.9616 35.8419 21.6726 35.4084 21.492C35.1315 21.3957 34.8907 21.2753 34.698 21.0706Z" fill="#7168CA"/>
<path d="M16.0957 28.0781C16.0957 27.5844 16.0957 27.0787 16.1559 26.5851C16.0717 26.4165 16.1319 26.26 16.168 26.1035C16.469 24.7429 17.0951 23.5389 18.0222 22.4914C18.4316 22.0338 18.8771 21.6245 19.3587 21.2392C19.467 21.1549 19.5633 21.0345 19.7319 21.0465C19.9005 21.1067 19.8162 21.2873 19.9125 21.3837C20.0088 21.6847 20.1052 21.9977 20.1894 22.2987C20.3701 22.6238 20.1413 22.7924 19.9366 22.973C19.0456 23.7315 18.3473 24.6466 17.9138 25.7423C17.7573 26.1516 17.6249 26.561 17.6128 27.0065C17.6128 27.0908 17.6008 27.1751 17.5406 27.2353C17.4683 27.753 17.5406 28.2587 17.7332 28.7523C17.9981 29.3062 18.2871 29.848 18.6001 30.3778C18.9132 30.8474 19.3587 31.1484 19.8523 31.4132C19.9607 31.3771 20.057 31.4373 20.1533 31.4734C21.6945 32.0755 23.2477 32.0273 24.825 31.6179C25.0899 31.5577 25.3307 31.4253 25.6076 31.4373C26.0772 31.3169 26.4986 31.0882 26.92 30.8474C27.1849 30.5945 27.51 30.438 27.8471 30.3055C28.5214 29.9323 29.1354 29.4988 29.6652 28.9329C29.9301 28.5838 30.2672 28.3068 30.5441 27.9697C30.9776 27.4399 31.3749 26.874 31.712 26.2841C31.8324 26.0794 31.8204 25.9108 31.688 25.7182C31.2425 25.0439 31.3027 24.177 31.7843 23.563C32.2779 22.9369 33.0967 22.7081 33.8552 22.973C33.9877 23.0211 34.1081 23.0573 34.1683 23.2017C35.0954 23.888 35.276 24.7911 34.674 25.7543C34.4452 26.1275 34.084 26.3322 33.6626 26.4286C33.482 26.4767 33.3736 26.573 33.3014 26.7296C32.4345 28.4634 31.2184 29.9082 29.6652 31.0761C29.1836 31.5698 28.6056 31.9069 27.9795 32.1597C27.5461 32.3524 27.1126 32.533 26.6671 32.7256C26.6069 32.834 26.4986 32.8701 26.3902 32.9062C25.0778 33.3517 23.7413 33.6768 22.3447 33.6287C21.562 33.6046 20.8035 33.4481 20.057 33.2073C19.9486 33.1711 19.8403 33.135 19.7921 33.0146C19.2985 32.822 18.8409 32.545 18.3714 32.2802C17.8175 31.7985 17.2757 31.3049 16.9145 30.6547C16.5171 29.9323 16.2884 29.1497 16.168 28.343C16.1439 28.2466 16.1198 28.1624 16.0957 28.0781Z" fill="#764ABC"/>
<path d="M28.3769 26.5008C26.7876 26.5249 25.4631 25.2365 25.4872 23.5509C25.5113 21.805 26.9561 20.6853 28.425 20.6973C29.8458 20.7094 31.3027 21.8291 31.3027 23.575C31.3027 25.369 29.8458 26.5489 28.3769 26.5008Z" fill="#7168CA"/>
</g>
<defs>
<filter id="filter0_d_76_119" x="0.80188" y="0" width="55.1981" height="55.1981" filterUnits="userSpaceOnUse" color-interpolation-filters="sRGB">
<feFlood flood-opacity="0" result="BackgroundImageFix"/>
<feColorMatrix in="SourceAlpha" type="matrix" values="0 0 0 0 0 0 0 0 0 0 0 0 0 0 0 0 0 0 127 0" result="hardAlpha"/>
<feOffset dy="4"/>
<feGaussianBlur stdDeviation="2"/>
<feComposite in2="hardAlpha" operator="out"/>
<feColorMatrix type="matrix" values="0 0 0 0 0 0 0 0 0 0 0 0 0 0 0 0 0 0 0.25 0"/>
<feBlend mode="normal" in2="BackgroundImageFix" result="effect1_dropShadow_76_119"/>
<feBlend mode="normal" in="SourceGraphic" in2="effect1_dropShadow_76_119" result="shape"/>
</filter>
</defs>
</svg>
